<svg xmlns="http://www.w3.org/2000/svg" width="86" height="105" fill="none" xmlns:v="https://vecta.io/nano"><g clip-path="url(#A)"><path d="M28.494 42.081c-4.274-6.339-.817-31.343 10.133-34.277s39.457 6.673 34.625 22.284-5.78 41.571-16.729 44.505S32.768 48.42 28.494 42.081z" fill="#46e997"/><path d="M0 101.485c6.643-3.528 12.57-1.659 20.594 0 15.058 3.116 27.68 0 27.68 0s11.958-1.313 11.958-5.299c0-2.436-5.093-1.993-11.072-3.322-3.322-.738-3.322-4.207.664-4.207 2.801 0 8.193 1.993 13.729 0 1.627-.586 2.739-3.073 0-3.986-3.986-1.329-19.487.236-19.708-1.993-.308-3.1 2.037-2.746 4.872-3.1 3.543-.443 11.958 1.771 17.272 0 1.682-.561.886-3.307-1.329-3.986-3.764 0-9.212.797-10.629-.443-1.772-1.55-1.772-20.372-1.772-21.922 0-2.864-1.55-4.222-3.543-3.543s-1.653 3.936.443 4.65c1.993.679 8.193.65 10.408.65 1.772 0 5.315-.9 4.429-3.1s-2.903-2.651-4.429-.871c-1.329 1.55-1.72 6.453-2.214 10.408-.443 3.543-1.55 10.186-.664 11.072.443.886 9.345 1.27 10.408-.679 1.329-2.436.776-8.628 1.329-13.05.664-5.315.737-4.909 6.643-10.408 6.422-5.979 17.051-42.516-21.037-44.066-13.951 0-38.53 18.822-17.051 44.066 5.757 5.108 7.529 14.836 8.857 25.672" stroke="#000" stroke-width="2.5"/></g><defs><clipPath id="A"><path fill="#fff" transform="translate(0 .173)" d="M0 0h86v104H0z"/></clipPath></defs></svg>