<svg fill="none" height="164" viewBox="0 0 500 164" width="500" xmlns="http://www.w3.org/2000/svg"><path d="m443.116 80.2179c0 7.4624 22.279 13.2398 27.647 10.1305 10.126-3.8867 22.537-11.7197 27.946-23.4394 2.688-5.8228.06-11.1187-5.409-11.1187-5.468 0-8.259-11.7184-20.411-12.3014s-15.494 12.243-16.709 18.656-13.064 8.745-13.064 18.073z" fill="#46e997"/><g stroke="#000" stroke-linecap="round" stroke-linejoin="round" stroke-miterlimit="10" stroke-width="2.40404"><path d="m144.66 77.9687c8.174-4.7953 18.309-4.4684 27.682-3.2696s18.854 3.2695 28.227 1.4168c12.206-2.3976 22.233-11.0074 34.003-15.1488 15.585-5.4492 32.695-2.6156 48.716 1.0899 16.02 3.7054 32.477 8.1738 48.825 5.6671 11.443-1.7437 22.014-6.757 33.131-10.0265 6.321-1.8527 13.296-3.1605 19.181-.109 2.398 1.1988 4.686 3.5965 4.577 6.3211s-1.09 6.3211-3.596 7.7379c-9.373 5.6671-13.187 7.3019-20.271 5.6671-1.853-.4359-4.033-1.1988-5.123-2.8336-.762-1.1988-.653-2.8335-.218-4.1413 2.398-8.7188 12.207-14.6039 20.925-12.6422 4.251.9809 8.501 4.1414 8.828 8.5008.327 4.0324-2.615 7.5199-5.449 10.3535-9.482 9.1546-20.816 16.1296-33.131 20.5979-6.212 2.2887-12.751 3.8142-18.745 6.6482-11.226 5.34-19.836 14.822-28.227 24.085"/><path d="m245.034 58.4603c8.719-7.5199 21.361-8.6097 32.696-6.3211 11.225 2.2887 21.687 7.5199 32.368 11.5524 1.962.7628 4.141 1.4167 6.103.8718 1.635-.4359 2.834-1.6348 4.141-2.7246 7.52-6.2121 17.983-8.8277 27.573-6.757.545 1.5258-.872 3.2695-2.397 3.5965-1.635.327-3.27-.218-4.796-.7629-6.648-2.2886-13.514-4.7953-18.745-9.4816s-8.501-12.3152-6.103-18.9632c1.635-4.4684 6.321-7.9559 10.898-7.084 4.796.9809 7.52 5.6672 10.572 9.4816 3.378 4.1414 7.738 7.4109 12.533 9.4816 2.725 1.1989 6.975 1.3078 7.52-1.6347.654-3.0516-4.577-4.4684-6.43-1.9618-1.853 2.5067-.763 6.2121 1.199 8.7188 1.961 2.5066 4.577 4.3593 6.103 7.1929"/><path d="m336.254 30.5606c-3.378-5.8851-6.757-12.0972-6.539-18.8542 0-1.3078.545-4.57736 1.09-5.77618 1.417-2.83359 5.013-4.03242 8.283-3.92343 6.103.32695 11.225 4.25035 16.02 8.06481 5.014 4.0324 9.918 8.0648 14.931 11.9883 4.25 3.4874 8.828 7.1929 10.681 12.4241 1.634 4.7953 2.07 9.0457 4.25 14.3859.872 2.0707 3.16 10.4625 3.705 12.6422"/><path d="m379.848 31.7595c3.16-4.5773 3.923-10.4625 5.994-15.5847 2.07-5.2312 6.866-10.24451 12.424-9.37264 3.705.54492 6.539 3.70544 7.847 7.19294s1.308 7.302 1.417 11.0074c.109 10.7894.218 21.5788.218 32.2593.109 6.866.109 13.9499-1.853 20.5979-2.616 8.5008-8.283 15.6937-14.822 21.5789-3.923 3.5964-8.501 6.8664-13.732 7.6284-7.956 1.09-17.328-3.705-23.214 1.744-.871.763-1.525 1.744-1.743 2.943-.327 2.288 1.852 4.359 4.141 4.795s4.686-.327 6.866-1.09c11.879-3.923 23.759-7.847 33.24-11.334 14.713-4.4684 29.317-8.9368 44.03-13.4051 15.802-4.7953 33.567-9.4816 48.171-1.8527 1.416.7628 2.833 1.6347 3.596 3.0515 1.417 2.6156 0 5.7761-1.744 8.1733-4.141 5.341-10.68 8.828-17.437 9.155-.654 0-1.417 0-1.962-.218-2.288-1.09-1.199-4.686.545-6.648 5.013-5.667 12.642-9.0455 20.271-8.8276"/><path d="m471.067 109.792c-13.841 2.725-23.867 14.277-36.182 21.034-11.117 6.103-23.977 8.065-36.292 11.116-12.206 3.052-24.195 7.084-35.638 12.206-6.648 2.943-13.187 6.322-20.38 7.52-9.155 1.635-18.418-.327-27.682-1.416-23.649-2.725-48.28.436-67.679-5.777-20.271-10.026-42.831-14.603-65.39-17.001-29.426-3.161-59.179-2.616-88.8223-2.18-30.2976.545-60.7041 1.09-91.0017 1.526"/><path d="m465.836 84.1802c-.872-5.7761-.109-11.9883 3.052-16.8925 3.16-4.9043 8.827-8.3918 14.604-8.1738 2.724.1089 5.449.9808 8.064.2179-2.833 3.4875-5.776 7.084-9.699 9.0457-4.578 2.2887-9.918 2.1797-14.604 4.0324 1.635-5.1222-1.853-10.4625-1.853-15.8027 0-3.9234 1.853-7.7378 5.014-10.0265-.981 1.7438-.436 3.9234-.436 5.9941.109 2.0707-.654 4.4684-2.616 4.9043"/><path d="m466.599 70.9941c-.763-1.7437-2.507-2.7246-4.359-3.0515-1.853-.327-3.706 0-5.558.5449-1.962.5449-3.815 1.3078-5.232 2.8336-1.416 1.5258-2.07 3.5965-1.307 5.4492 1.198-2.0707 2.615-4.3594 4.904-4.7953 1.417-.327 2.942.218 4.468.327 1.526.1089 3.27-.436 7.084-1.3079z"/></g></svg>