<svg xmlns="http://www.w3.org/2000/svg" width="200" height="150" fill="none" xmlns:v="https://vecta.io/nano"><g clip-path="url(#A)"><path d="M93.569 37.293c7.855-1.836 15.95.515 25.436-.052 12.846-.462 11.858 19.293 11.639 22.876s-19.86 10.966-24.478 9.712-16.468-6.734-19.345-9.623-14.807-12.553-12.52-19.538 13.618-2.055 19.267-3.376z" fill="#46e997"/><path d="M82.535 36.85l-1.686.532s-.487.108-.487 1.543c.718 1.013.625.906 1.435 1.674s2.329.303 2.765.383c1.246.223 2.535.685 3.778-.053l.439.269c.219.366.311.797.263 1.223s-1.687 2.898-1.983 3.202m0 0c-.62.665.359-1.196 0 0zm0 0l.05.784c.308.89.787 1.369 1.918 2.503 1.141 1.018 1.802 1.549 3.094 1.639s2.331-.256 3.003-1.489c-1.304-2.197-1.953-4.74-1.867-7.313-.09-1.808-.134-1.147-.09-1.808-.028-.058-.043-.122-.043-.187a.44.44 0 0 1 .04-.188.43.43 0 0 1 .115-.152c.049-.041.106-.07.167-.086.697-.07 1.159-.701 1.847-.691.02-.2.02-.402 0-.602-.52-2.3-.804-4.654-1.15-6.981-.229-1.536-.258-3.87-.43-5.405m0 0l-2.109.267a62.75 62.75 0 0 0 4.224-.474c1.495-.625 3.006-1.207 4.659-1.183 1.292.02 2.642.947 2.987 2.084a14.65 14.65 0 0 1 .524 2.992c.119 1.28-.175 2.423-1.218 3.268a4.74 4.74 0 0 0-.533.625c-1.908 2.237-4.298 3.783-6.862 5.073l-.132.455c.712 2.558.985 5.224.807 7.879-.058.771-.268 1.616-.94 2.174v.635a11.08 11.08 0 0 0 1.938 1.715c.677.542 1.465.918 2.305 1.098a5.47 5.47 0 0 0 2.539-.057c1.669-.406 3.277-.146 4.585 1.303 1.457 1.616 2.558 3.477 3.782 5.259 1.046 1.523 1.989 3.075 2.447 4.903a6.83 6.83 0 0 1 .165 3.258c-.491 2.111-3.229 3.537-5.167 3.501-1.561-.025-3.098-.411-4.495-1.13l-7.572-4.248c-3.856-2.176-7.236-5.145-9.93-8.723-1.195-1.549-1.879-3.245-1.066-5.249.497-1.223.794-2.58 1.614-3.597s.672-1.798.016-2.862c-.623-.997-1.991-3.098-2.117-4.371l.128.509c-.105-.509-.207-.731-.323-1.094-.255-.748-.971-2.074-1.437-3.003m11.179-11.006c-.179-2.39.026-1.213-.119-2.071a28.17 28.17 0 0 1-.504-5.532c.052-1.732.92-2.915 2.461-3.544a13.88 13.88 0 0 1 5.548-.921 3.06 3.06 0 0 1 1.431.326c.445.224.832.553 1.129.961.481.619.835 1.331 1.04 2.094.517 1.832.517 3.733.517 5.611.016 2.025-.107 4.046-.155 6.07-.078 3.115.058 6.223.265 9.328.151 2.264.106 4.531.058 6.795-.026 1.15-.326 2.294-.501 3.441l.087.273c-.464 1.203-1.653 1.416-2.583 1.868-1.915.941-3.985.429-5.166-1.054-.523-.655.032-3.318.723-3.733 1.136-.697 1.915-1.127 3.229-.981 2.826 0 3.229 1.762 3.704 3.713 1.824.997 3.629 2.134 5.812.997.969-.509 2.711-1.001 3.305-2.092.122-.211-.349.377-.131.277.702-1.454 1.618-3.842 1.844-5.449.401-3.603 1.734-6.951 2.613-10.425a39.28 39.28 0 0 0 .862-5.691c.144-1.454.076-2.922-.2-4.355-.53-2.872-2.222-4.491-4.941-5.066-1.275-.273-2.528-.485-3.875-.229a2.25 2.25 0 0 0-1.212.531c-.344.296-.597.689-.725 1.132-.498 1.376 7.817.796 7.655 2.226-.29 2.586-7.991-2.108-8.169.478-.152 2.237-.562 19.173-.562 21.4.003 2.786 6.888-2.088 6.1 3.238-2.193 4.328-6.855.033-6.765.295.494 1.426 1.999 4.322 3.879 3.883M93.715 25.647c-.488.379-.91.305-1.391.325h-.294c-2.973-.437-5.98-.187-8.968.117-1.057.11-2.124.053-3.165-.169a1.35 1.35 0 0 0-.969 0l-.352-.273c-.103-1.237-.278-2.44-.148-3.72.184-1.775 1.001-3.135 2.015-4.415a3.5 3.5 0 0 1 2.351-1.233c.672-.096 1.369-.06 2.034-.302a6.46 6.46 0 0 1 1.489-.203c.398-.052.802.005 1.171.165s.692.417.934.745c1.634 2.074 3.19 4.195 3.526 6.981.203 1.662.365 3.324.626 4.986.523 3.296.756 6.634.698 9.973.012.243.04.485.084.725l-.352.402-3.953 1.193c-.358.12-.604.096-.794-.199-1.017-1.575-5.706-4.163-5.722-4.093m0 0c-.371-.387 0-.142-.374-1.056-1.15-2.836-2.451-5.605-3.152-8.613-.016-.07-.149-.113-.165-.183-.094-.402.242-1.127-.355-1.12a2.63 2.63 0 0 0-1.666.499c-.423.362-.761.816-.991 1.33-.894 1.921-1.614 3.913-2.357 5.897-1.343 3.623-2.742 7.224-3.797 10.97-.785 2.766-1.763 5.478-2.519 8.251-.688 2.533-.294 4.734 1.792 6.649 2.26 2.094 4.873 3.826 6.888 6.216 1.76 2.084 3.475 4.209 5.393 6.133 1.472 1.476 2.948 2.968 4.647 4.185l.439.815c.898.545 1.33 1.529 2.031 2.26 1.411 1.476 2.754 3.032 4.392 4.265 2.383 2.178 1.737 1.703 1.737 1.703s2.631 2.153 4.186 1.635 1.953-3.106 1.794-3.907c-.555-2.806-2.58-4.186-5.333-6.77-1.962-1.841-3.158-2.28-5.789-3.005s-1.449-.404-2.273-.511c-.594-.043-.773.797-.796 1.332-.032.751 0 1.496-.249 2.227-.071.2.152.505.239.761v.09a1.8 1.8 0 0 0-.178.997v8.786c0 1.539.226 3.088.142 4.617-.139 2.507-.045 5.02-.294 7.523a33.13 33.13 0 0 0-.194 3.347c0 2.244-.213 4.475-.384 6.702l-1.376 21.823m41.32 3.151c-.384-2.327-3.506-23.222-3.703-25.586-.301-3.657-.097-7.313.168-10.97.129-1.772.08-3.56.2-5.342.145-2.201.155-4.415.384-6.609a8.65 8.65 0 0 1 1.896-4.451c1.252-1.596 2.531-3.168 3.552-4.957 1.068-1.858 1.688-3.873 2.234-5.911.534-1.804.924-3.649 1.166-5.518.168-1.626.255-3.264.455-4.89.323-2.676.323-5.375.481-8.065.104-1.921-.126-3.863-.232-5.794-.055-.967-.213-1.931-.252-2.899-.039-2.424-.389-4.832-1.043-7.16-.583-1.962-.829-4.014-.727-6.063.02-.422-.025-.848 0-1.267.226-2.875-1.127-3.567-3.348-4.252a9.66 9.66 0 0 0-1.67-.359c-1.705-.2-2.719.788-3.439 2.706s4.214 1.705 3.878 3.703c-.322 1.875-4.404-2.41-5.008-.635s-2.984 11.828-2.583 13.786c.102.689.403 1.331.864 1.841s1.059.868 1.719 1.024c1.463.412 2.677-.073 3.62-1.406.859-1.217 1.111-2.6 1.388-3.989.323-1.662 1.292-3.018 2.109-4.441.075-.137.198-.239.345-.285a.58.58 0 0 1 .44.039c.352.179.345.628.265.971a40.03 40.03 0 0 1-1.072 4.069c-.514 1.301-2.969 2.584-3.613 3.823m-39.794 85.736c-.084.301-.134-.281 0 0z" stroke="#282e38" stroke-width="2.12" stroke-linecap="round" stroke-linejoin="round"/></g><defs><clipPath id="A"><path fill="#fff" transform="translate(58)" d="M0 0h83v134H0z"/></clipPath></defs></svg>