<svg xmlns="http://www.w3.org/2000/svg" width="200" height="150" fill="none" xmlns:v="https://vecta.io/nano"><path d="M101.329 38.328c16.962 3.774 33.892 19.065.416 32.76s1.66 42.047-18.205 39.438-26.476-24.817-26.753-46.657 27.581-29.315 44.542-25.541z" fill="#46e997"/><g stroke="#000" stroke-width="2.15" stroke-linecap="round" stroke-linejoin="round"><path d="M79.926 74.012c.956-.956 3.442-2.95 5.737-3.278m0 0c2.295-2.623 5.873-3.551 7.376-3.688 1.229 0 .738-.656 8.605 1.639s13.933 7.649 15.981 10.654c-3.278-2.096-14.752-2.869-18.03-3.278-2.44-.305-7.376-.819-8.605-.819-.983 0-3.961-3.005-5.327-4.508zm-5.736-6.557c-.41-.683-4.604-1.974-5.327-1.639m0 0c.831.405 1.252 1.107 1.217 2.031-.034.883-.889 1.7-1.255 1.883-.82.41-2.42.846-3.65 1.255l-7.786 2.206c-1.639.328-5.173.137-6.539 0-.409-.41.474-.902.802-1.229l2.868-2.869c.82-.819 4.508-3.688 6.147-4.098.999-.25 2.713-.633 4.508-.288 1.149.221 2.519 1.07 3.688 1.107z"/><path d="M160.667 85.895h-32.796c-1.23 0-4.098-.41-5.327-.819s-8.197-3.278-10.655-3.278-9.015-.41-11.883 0-11.884 3.688-13.113 4.098-2.049.82-2.868.82-1.639-.82-2.868-.82h-2.049m0 0c-1.229 0-1.229.41-2.459 1.229l-.82.41c-.273.137-.902.41-1.229.41-.41 0-.82-.82-1.229-.82-.656 0-.683.137-.82.41s-.574.82-1.229.82c-.82 0-.82 0-1.229.41-.328.328-.41.956-.41 1.229l-2.459.819c-1.093.41-3.36 1.311-3.688 1.639-.41.41-.41 1.229-.41 2.049m15.982-8.605l.82-12.293v-8.605c0-1.229.073-3.961.41-5.326m0 0c.37-1.502.8-3.026 1.229-4.099 1.639-5.327 3.442-8.769 4.098-9.425m-5.327 13.524c.956-.683 3.196-2.214 4.508-2.87m0 0c1.639-.82 3.278-8.196 13.113-7.376 7.867.656 14.205 4.371 16.391 6.147l2.459 2.459c-6.011-.273-18.686-.656-21.309 0s-6.01.82-7.376.82c-.82-.137-2.623-.738-3.278-2.049zm.82-10.654c.698-1.229-2.459-2.869-.41-7.786 1.257-1.935 4.082-6.057 5.327-7.061 1.557-1.255.482 7.166 0 8.291-.82 2.459-3.278 4.917-4.917 6.557z"/><path d="M80.335 60.078c-1.093-2.869-3.769-8.687-4.097-9.015m0 0c-.328-.328-4.234-.136-6.147 0m6.147 0l-2.934-8.465m-3.213 8.465c-.41-1.502-1.896-4.062-3.278-4.944-3.552-2.266-9.345-.901-12.341.436l5.785 3.688c1.229.82 5.326 2.868 6.145 2.868 2.207 0 2.46-1.366 3.689-2.049zm3.213-8.465c-.82-.82-4.853-1.369-6.082-7.926l-.823-8.395c0-.628 6.751 5.614 7.379 11.264.171 1.535-.064 5.057-.474 5.057zm10.721 44.116c.956.546 3.032 1.803 3.688 2.459h1.639c1.229 0 .41 2.868.82 3.688s2.459 1.229 3.278 1.229 1.229 0 1.229.41.067 3.212-1.229 4.507c-.82.82 1.639.41 2.459.41s1.639.41 1.639.82m0 0c0 .733-.683 1.092-1.229 1.229-.956.137-2.95.574-3.278 1.229-.41.82-.82 1.639-.82 2.459m5.327-4.917c3.141-2.732 10.818-8.278 16.391-8.606 6.966-.41 10.654 0 12.293 1.229s4.098 5.737 3.688 9.015m-37.699 3.278c-.683-.683-4.098-2.049-4.098-2.049s-1.639-.41-2.459-.41c-1.229 0-2.049 0-2.459.41s-.41 1.229-.41 2.049m9.425 0v3.278m-9.425-3.278v2.868m0-2.868c-.82-.956-2.705-2.95-3.688-3.278-1.229-.41-4.098-1.23-4.917-1.23m0 0c-.819 0-.819-.409-2.459-1.229l-6.556-3.278m9.015 4.507l-1.229 3.279m-7.786-7.786c-.82-.41-5.327-4.098-6.147-4.098-1.229-.41-2.868-.82-4.508-.82-1.311 0-2.185.546-2.459.82m13.113 4.098c.339-.546 1.223-1.803 2.049-2.459 1.033-.819 2.049-.41 2.868-1.639.656-.983 0-1.776-.41-2.049m-17.62 2.049c-1.776-1.502-6.229-4.098-9.835-2.459-.886.403-1.56.847-2.065 1.302-1.705 1.535-.151 3.825 1.882 4.888l.702.367 2.76 1.229c.819.41 5.737 3.688 6.557 4.508s9.015 7.786 10.244 8.605 2.459 2.049 4.098 2.459 6.966 2.868 8.196 3.278 8.196 2.868 9.425 3.688 2.459 1.639 3.278 2.049 2.459.819 3.278.819c.546 0 2.049-.245 3.688-1.229s5.054-2.049 6.557-2.459c1.912-.273 5.983-.901 6.966-1.229 1.23-.41 11.064-3.278 12.294-3.688s4.507-2.049 6.146-2.049h6.557c.983 0 27.469.683 29.655.82M52.062 92.041h0c-.888 1.11-.647 2.73.552 3.492l2.316 1.425c.82.41 5.327 4.098 6.147 4.918s6.147 4.917 6.556 5.327 2.049 1.639 2.459 1.639 6.557 3.278 7.376 3.688 10.654 6.147 12.703 6.147 9.015-1.639 10.654-1.639m-1.229-24.997a165.3 165.3 0 0 0 6.146-2.459"/></g></svg>