<svg xmlns="http://www.w3.org/2000/svg" width="200" height="150" fill="none" xmlns:v="https://vecta.io/nano"><g fill="#46e997"><circle cx="56.282" cy="87.99" r="29.306"/><circle cx="145.189" cy="87.99" r="29.306"/></g><g stroke="#000" stroke-width="2.211" stroke-miterlimit="10" stroke-linejoin="round"><path d="M66.285 33.28c6.01.494 12.068.412 18.062-.243 1.091-.119 2.566.003 2.775 1.081l-10.431 1.637c-.513.081-1.097.209-1.343.666-.216.399-.082.89.056 1.323.468 1.464.96 2.974 1.97 4.132 2.01 2.306 5.426 2.601 8.483 2.725 13.113.533 26.271.948 39.342-.226.857-.076 1.935-.36 2.048-1.212.141-1.054-1.391-1.715-1.369-2.777.019-.918 1.125-1.353 2.031-1.503a25.38 25.38 0 0 1 10.472.472c.569.147 1.176.344 1.522.821.566.781.128 1.938-.618 2.55s-1.713.865-2.583 1.279c-1.517.721-2.777 1.971-3.507 3.485-.367.763-.404 1.974.422 2.159.267.06.543-.023.804-.105l6.944-2.184c.647-.204 1.329-.428 1.778-.938.638-.725.622-1.821.383-2.758-.839-3.285-3.898-5.629-7.152-6.578s-6.719-.748-10.103-.538c-.407.025-.879.089-1.087.44-.132.224-.113.502-.089.76 1.339 14.404 5.666 28.339 9.967 42.151.463 1.486.946 3.011 1.925 4.22s2.582 2.047 4.092 1.669c-5.777-6.888-7.781-16.086-9.601-24.891-.076-.371-.151-.774.01-1.118.196-.421.674-.619 1.115-.763 5.011-1.645 10.514-1.183 15.584.268 4.4 1.259 8.713 3.339 11.697 6.81 1.886 2.194 3.165 4.859 4.022 7.623 2.912 9.383.782 20.234-5.676 27.638s-17.088 10.988-26.651 8.738-17.555-10.363-19.398-20.012 2.73-20.273 11.146-25.341c1.798-1.083 3.756-1.935 5.358-3.293 1.23-1.043 2.266-2.505 2.215-4.117s-1.6-3.189-3.162-2.787c-.64.165-1.164.608-1.664 1.04-13.053 11.297-25.243 23.593-36.426 36.744-.645-.491-1.32-1.053-1.519-1.84s.372-1.795 1.179-1.702c.712.082 1.075.877 1.303 1.558l2.792 8.337 2.886-1.326" stroke-linecap="round"/><path d="M89.368 88.776c-4.927-14.888-8-30.318-12.286-45.403-.318-.127-.619.206-.8.496L66.129 59.783c-3.865-2.58-8.675-3.486-13.316-3.229s-9.152 1.608-13.504 3.237c-2.009.751-4.023 1.581-5.719 2.894-2.237 1.731-3.788 4.201-5.018 6.748C25.286 76.236 24 84.15 25.851 91.476s7.056 13.92 14.104 16.644c4.44 1.716 9.343 1.869 14.078 1.384 4.487-.458 8.956-1.486 12.999-3.485s7.651-5.014 9.936-8.903c2.657-4.522 3.394-10.022 2.626-15.21s-2.963-10.089-5.805-14.498c-1.595-2.474-3.453-4.866-5.943-6.436-.22-.139-.469-.277-.726-.238-.287.042-.496.284-.677.512a343.53 343.53 0 0 0-14.339 19.303c-.239.347-.489.728-.477 1.15.027.919 1.158 1.314 2.065 1.467l19.049 3.222c5.772.976 11.769 2.044 16.627 2.39z"/></g></svg>